<?xml version="1.0" encoding="UTF-8" standalone="no"?><!DOCTYPE svg PUBLIC "-//W3C//DTD SVG 1.1//EN" "http://www.w3.org/Graphics/SVG/1.1/DTD/svg11.dtd"><svg width="100%" height="100%" viewBox="0 0 822 704" version="1.1" xmlns="http://www.w3.org/2000/svg" xmlns:xlink="http://www.w3.org/1999/xlink" xml:space="preserve" xmlns:serif="http://www.serif.com/" style="fill-rule:evenodd;clip-rule:evenodd;stroke-linecap:round;stroke-linejoin:round;stroke-miterlimit:1.5;"><circle cx="171" cy="51" r="50" style="fill:#3074e7;stroke:#000;stroke-width:2px;"/><circle cx="411" cy="51" r="50" style="fill:#3074e7;stroke:#000;stroke-width:2px;"/><circle cx="651" cy="51" r="50" style="fill:#3074e7;stroke:#000;stroke-width:2px;"/><circle cx="771" cy="51" r="50" style="fill:#3074e7;stroke:#000;stroke-width:2px;"/><circle cx="51" cy="51" r="50" style="fill:#3074e7;stroke:#000;stroke-width:2px;"/><circle cx="171" cy="171.379" r="50" style="fill:#3074e7;stroke:#000;stroke-width:2px;"/><circle cx="411" cy="171.379" r="50" style="fill:#3074e7;stroke:#000;stroke-width:2px;"/><circle cx="651" cy="171.379" r="50" style="fill:#3074e7;stroke:#000;stroke-width:2px;"/><circle cx="771" cy="171.379" r="50" style="fill:#3074e7;stroke:#000;stroke-width:2px;"/><circle cx="51" cy="171.379" r="50" style="fill:#3074e7;stroke:#000;stroke-width:2px;"/><circle cx="171" cy="291.759" r="50" style="fill:#3074e7;stroke:#000;stroke-width:2px;"/><circle cx="651" cy="291.759" r="50" style="fill:#3074e7;stroke:#000;stroke-width:2px;"/><circle cx="771" cy="291.759" r="50" style="fill:#3074e7;stroke:#000;stroke-width:2px;"/><circle cx="51" cy="291.759" r="50" style="fill:#3074e7;stroke:#000;stroke-width:2px;"/><circle cx="171" cy="412.138" r="50" style="fill:#3074e7;stroke:#000;stroke-width:2px;"/><circle cx="291" cy="412.138" r="50" style="fill:#3074e7;stroke:#000;stroke-width:2px;"/><circle cx="411" cy="412.138" r="50" style="fill:#3074e7;stroke:#000;stroke-width:2px;"/><circle cx="651" cy="412.138" r="50" style="fill:#3074e7;stroke:#000;stroke-width:2px;"/><circle cx="771" cy="412.138" r="50" style="fill:#3074e7;stroke:#000;stroke-width:2px;"/><circle cx="51" cy="412.138" r="50" style="fill:#3074e7;stroke:#000;stroke-width:2px;"/><circle cx="171" cy="532.517" r="50" style="fill:#3074e7;stroke:#000;stroke-width:2px;"/><circle cx="291" cy="532.517" r="50" style="fill:#3074e7;stroke:#000;stroke-width:2px;"/><circle cx="411" cy="532.517" r="50" style="fill:#3074e7;stroke:#000;stroke-width:2px;"/><circle cx="651" cy="532.517" r="50" style="fill:#3074e7;stroke:#000;stroke-width:2px;"/><circle cx="771" cy="532.517" r="50" style="fill:#3074e7;stroke:#000;stroke-width:2px;"/><circle cx="51" cy="532.517" r="50" style="fill:#3074e7;stroke:#000;stroke-width:2px;"/><circle cx="171" cy="652.897" r="50" style="fill:#3074e7;stroke:#000;stroke-width:2px;"/><circle cx="291" cy="652.897" r="50" style="fill:#3074e7;stroke:#000;stroke-width:2px;"/><circle cx="411" cy="652.897" r="50" style="fill:#3074e7;stroke:#000;stroke-width:2px;"/><circle cx="651" cy="652.897" r="50" style="fill:#3074e7;stroke:#000;stroke-width:2px;"/><circle cx="771" cy="652.897" r="50" style="fill:#3074e7;stroke:#000;stroke-width:2px;"/><circle cx="51" cy="652.897" r="50" style="fill:#3074e7;stroke:#000;stroke-width:2px;"/><circle cx="531" cy="652.897" r="50" style="fill:#e86d49;stroke:#000;stroke-width:2px;"/><circle cx="291" cy="51" r="50" style="fill:#e86d49;stroke:#000;stroke-width:2px;"/><circle cx="531" cy="51" r="50" style="fill:#e86d49;stroke:#000;stroke-width:2px;"/><circle cx="291" cy="171.379" r="50" style="fill:#e86d49;stroke:#000;stroke-width:2px;"/><circle cx="531" cy="171.379" r="50" style="fill:#e86d49;stroke:#000;stroke-width:2px;"/><circle cx="291" cy="291.759" r="50" style="fill:#e86d49;stroke:#000;stroke-width:2px;"/><circle cx="411" cy="291.759" r="50" style="fill:#e86d49;stroke:#000;stroke-width:2px;"/><circle cx="531" cy="291.759" r="50" style="fill:#e86d49;stroke:#000;stroke-width:2px;"/><circle cx="531" cy="412.138" r="50" style="fill:#e86d49;stroke:#000;stroke-width:2px;"/><circle cx="531" cy="532.517" r="50" style="fill:#e86d49;stroke:#000;stroke-width:2px;"/></svg>