<?xml version="1.0" encoding="UTF-8" standalone="no"?><!DOCTYPE svg PUBLIC "-//W3C//DTD SVG 1.1//EN" "http://www.w3.org/Graphics/SVG/1.1/DTD/svg11.dtd"><svg width="100%" height="100%" viewBox="0 0 960 782" version="1.1" xmlns="http://www.w3.org/2000/svg" xmlns:xlink="http://www.w3.org/1999/xlink" xml:space="preserve" xmlns:serif="http://www.serif.com/" style="fill-rule:evenodd;clip-rule:evenodd;stroke-linecap:round;stroke-linejoin:round;stroke-miterlimit:1.5;"><rect x="0" y="0" width="960" height="782" style="fill:#fdffee;"/><path d="M460.528,38.622c9.436,-9.649 24.931,-9.82 34.579,-0.384l34.962,34.196c9.649,9.437 9.82,24.932 0.384,34.58l-390.981,399.744c-9.436,9.648 -24.931,9.82 -34.579,0.383l-34.962,-34.196c-9.649,-9.437 -9.82,-24.931 -0.384,-34.579l390.981,-399.744Z" style="fill:#e86d49;fill-opacity:0.337255;stroke:#e86d49;stroke-width:2px;"/><path d="M890,297.69c0,-13.798 -11.202,-25 -25,-25l-50,0c-13.798,0 -25,11.202 -25,25l0,419.258c0,13.798 11.202,25 25,25l50,0c13.798,0 25,-11.202 25,-25l0,-419.258Z" style="fill:#e86d49;fill-opacity:0.337255;stroke:#e86d49;stroke-width:2px;"/><path d="M745,401.19c13.798,0 25,11.202 25,25l0,50c0,13.798 -11.202,25 -25,25l-410,0c-13.798,0 -25,-11.202 -25,-25l0,-50c0,-13.798 11.202,-25 25,-25l410,0Z" style="fill:#e86d49;fill-opacity:0.337255;stroke:#e86d49;stroke-width:2px;"/><path d="M505,641.948c13.798,0 25,11.202 25,25l0,50c0,13.798 -11.202,25 -25,25l-410,0c-13.798,0 -25,-11.202 -25,-25l0,-50c0,-13.798 11.202,-25 25,-25l410,0Z" style="fill:#3074e7;fill-opacity:0.337255;stroke:#3074e7;stroke-width:2px;"/><g id="row-6" serif:id="row 6"><circle cx="240" cy="90.052" r="50" style="fill:none;stroke:#000;stroke-width:2px;"/><circle cx="360" cy="90.052" r="50" style="fill:none;stroke:#000;stroke-width:2px;"/><circle cx="480" cy="90.052" r="50" style="fill:#e86d49;stroke:#000;stroke-width:2px;"/><circle cx="600" cy="90.052" r="50" style="fill:none;stroke:#000;stroke-width:2px;"/><circle cx="720" cy="90.052" r="50" style="fill:none;stroke:#000;stroke-width:2px;"/><circle cx="840" cy="90.052" r="50" style="fill:none;stroke:#000;stroke-width:2px;"/><circle cx="120" cy="90.052" r="50" style="fill:none;stroke:#000;stroke-width:2px;"/></g><g id="row-5" serif:id="row 5"><circle cx="240" cy="210.431" r="50" style="fill:none;stroke:#000;stroke-width:2px;"/><circle cx="360" cy="210.431" r="50" style="fill:#e86d49;stroke:#000;stroke-width:2px;"/><circle cx="480" cy="210.431" r="50" style="fill:#e86d49;stroke:#000;stroke-width:2px;"/><circle cx="600" cy="210.431" r="50" style="fill:#e86d49;stroke:#000;stroke-width:2px;"/><circle cx="720" cy="210.431" r="50" style="fill:none;stroke:#000;stroke-width:2px;"/><circle cx="840" cy="210.431" r="50" style="fill:none;stroke:#000;stroke-width:2px;"/><circle cx="120" cy="210.431" r="50" style="fill:none;stroke:#000;stroke-width:2px;"/></g><g id="row-4" serif:id="row 4"><circle cx="240" cy="330.81" r="50" style="fill:#e86d49;stroke:#000;stroke-width:2px;"/><circle cx="360" cy="330.81" r="50" style="fill:#3074e7;stroke:#000;stroke-width:2px;"/><circle cx="480" cy="330.81" r="50" style="fill:#3074e7;stroke:#000;stroke-width:2px;"/><circle cx="600" cy="330.81" r="50" style="fill:#3074e7;stroke:#000;stroke-width:2px;"/><circle cx="720" cy="330.81" r="50" style="fill:none;stroke:#000;stroke-width:2px;"/><circle cx="840" cy="330.81" r="50" style="fill:#e86d49;stroke:#000;stroke-width:2px;"/><circle cx="120" cy="330.81" r="50" style="fill:none;stroke:#000;stroke-width:2px;"/></g><g id="row-3" serif:id="row 3"><circle cx="240" cy="451.19" r="50" style="fill:#3074e7;stroke:#000;stroke-width:2px;"/><circle cx="360" cy="451.19" r="50" style="fill:#e86d49;stroke:#000;stroke-width:2px;"/><circle cx="480" cy="451.19" r="50" style="fill:#e86d49;stroke:#000;stroke-width:2px;"/><circle cx="600" cy="451.19" r="50" style="fill:#e86d49;stroke:#000;stroke-width:2px;"/><circle cx="720" cy="451.19" r="50" style="fill:#e86d49;stroke:#000;stroke-width:2px;"/><circle cx="840" cy="451.19" r="50" style="fill:#e86d49;stroke:#000;stroke-width:2px;"/><circle cx="120" cy="451.19" r="50" style="fill:#e86d49;stroke:#000;stroke-width:2px;"/></g><g id="row-2" serif:id="row 2"><circle cx="240" cy="571.569" r="50" style="fill:#e86d49;stroke:#000;stroke-width:2px;"/><circle cx="360" cy="571.569" r="50" style="fill:#3074e7;stroke:#000;stroke-width:2px;"/><circle cx="480" cy="571.569" r="50" style="fill:#e86d49;stroke:#000;stroke-width:2px;"/><circle cx="600" cy="571.569" r="50" style="fill:#e86d49;stroke:#000;stroke-width:2px;"/><circle cx="720" cy="571.569" r="50" style="fill:#3074e7;stroke:#000;stroke-width:2px;"/><circle cx="840" cy="571.569" r="50" style="fill:#e86d49;stroke:#000;stroke-width:2px;"/><circle cx="120" cy="571.569" r="50" style="fill:#3074e7;stroke:#000;stroke-width:2px;"/></g><g id="row-1" serif:id="row 1"><circle cx="240" cy="691.948" r="50" style="fill:#3074e7;stroke:#000;stroke-width:2px;"/><circle cx="360" cy="691.948" r="50" style="fill:#3074e7;stroke:#000;stroke-width:2px;"/><circle cx="480" cy="691.948" r="50" style="fill:#3074e7;stroke:#000;stroke-width:2px;"/><circle cx="600" cy="691.948" r="50" style="fill:#e86d49;stroke:#000;stroke-width:2px;"/><circle cx="720" cy="691.948" r="50" style="fill:#3074e7;stroke:#000;stroke-width:2px;"/><circle cx="840" cy="691.948" r="50" style="fill:#e86d49;stroke:#000;stroke-width:2px;"/><circle cx="120" cy="691.948" r="50" style="fill:#3074e7;stroke:#000;stroke-width:2px;"/></g></svg>